<svg width="13" height="12" viewBox="0 0 13 12" fill="none" xmlns="http://www.w3.org/2000/svg">
<g clip-path="url(#clip0_268_8826)">
<path d="M12.3535 4.27202L5.56502 11.0605C5.28152 11.344 4.90502 11.5 4.50402 11.5H4.50102C4.09952 11.499 3.72252 11.342 3.43952 11.0565L0.655518 8.25102L1.36552 7.54702L4.15002 10.3525C4.24402 10.447 4.36952 10.5 4.50352 10.5H4.50452C4.63802 10.5 4.76402 10.448 4.85852 10.3535L11.647 3.56502L12.3535 4.27202ZM4.50552 5.99052H4.51402C4.91452 5.99052 5.29102 5.83452 5.57452 5.55102L9.67452 1.45102L8.96752 0.744019L4.86752 4.84402C4.77252 4.93952 4.66552 4.99752 4.51102 4.99052C4.37652 4.99002 4.25052 4.93652 4.15652 4.84002L2.11752 2.75802L1.40302 3.45752L3.44152 5.54002C3.72402 5.82852 4.10152 5.98852 4.50502 5.99102L4.50552 5.99052Z" fill="#A1F425"/>
</g>
<defs>
<clipPath id="clip0_268_8826">
<rect width="12" height="12" fill="white" transform="translate(0.5)"/>
</clipPath>
</defs>
</svg>
